<?xml version="1.0" encoding="utf-8"?>
<!-- Generator: Adobe Illustrator 26.0.1, SVG Export Plug-In . SVG Version: 6.00 Build 0)  -->
<svg version="1.1" id="Layer_1" xmlns="http://www.w3.org/2000/svg" xmlns:xlink="http://www.w3.org/1999/xlink" x="0px" y="0px"
	 viewBox="0 0 5000 5000" style="enable-background:new 0 0 5000 5000;" xml:space="preserve">
<style type="text/css">
	.st0{fill:#3C8FFC;}
</style>
<g>
	<path class="st0" d="M2384.5,2375.9l-11.8,216.8h-241v892.5c-184.7-34.8-328.4-109.9-420.6-170.4V1800.3l412.9,83.4v492.2H2384.5z"
		/>
	
		<image style="overflow:visible;enable-background:new    ;" width="95" height="95" xlink:href="D4303EB8.png"  transform="matrix(10.3733 0 0 11.1857 1444.9709 2679.3601)">
	</image>
	<g>
		<path class="st0" d="M1504.6,3141.7c45.8,54.7,93.8,95.9,135.1,126.1c14.7,11.6,33.3,25,54.1,38.8
			c91.2,61.1,234,138.6,418.1,175.6c50.6,10.1,104,16.8,160.4,19.2c104,5.2,195.6-4.6,271.1-19.8c95.4-15.6,227.9-48.9,367.2-125.2
			c289.4-160.6,418.4-406.7,462.5-507.2c0,0-195.3,233-340.6,329.2l24.3-1514.2c-91.2-62-234-138.6-418.1-176.5l-14.4,892.5
			l-241-3.4l-15.4,216.5l260.9,3.7l-8,492.2c-21.1,25.3-53.5,59.8-99.9,92.2c-135.4,92.8-281.4,96.2-349.9,97.1
			c-19.8-0.3-38.7-0.6-56.7-2.7c-111.1-7.3-197.8-39.7-287.5-74.2c-37.5-14.7-81.9-33.3-130.9-57.7
			c-94.4-45.8-206.5-113.9-323-210.1C1398,2990.6,1438.3,3065.1,1504.6,3141.7z"/>
	</g>
	
		<image style="overflow:visible;enable-background:new    ;" width="95" height="95" xlink:href="D4303EB7.png"  transform="matrix(10.3733 0 0 11.1857 2340.5378 1242)">
	</image>
	<path class="st0" d="M3372,2020.8c-118.1-94.7-231.1-160.9-326.5-205.2c-49.6-23.5-94.4-41.5-131.9-55.9
		c-90.3-33.3-177.7-64.4-288.7-69.9c-17.9-1.8-36.8-1.8-56.3-1.8c-68.5,1.8-214.1,7.3-348.3,102.3c-45.8,33.3-77.5,68.1-98.3,93.7
		l-412.9-83.4c-141.5,96.8-329.4,326.7-335.1,334c42.6-101.4,167.7-349.3,454.2-513.9c138-78.5,269.8-113.6,364.9-130.7
		c75.5-16.2,166.8-27.5,270.8-23.5c56.7,1.8,110.1,7.6,160.7,17.1c184.7,34.2,328.4,109.9,420.6,169.5
		c20.8,13.1,39.7,26.6,54.4,37.9c41.6,29.3,90.3,70.2,137,124C3304.8,1890.4,3346.4,1964,3372,2020.8z"/>
</g>
</svg>
